# xmcd
#
# Track frame offsets: 
#        150
#        2375
#        32022
#        55941
#        69838
#        96736
#        119752
#        132247
#        146489
#        171168
#        183481
#        197042
#        210153
#        224574
#        246567
#        263836
#        285397
#        306744
#        330297
#
# Disc length: 4727 seconds
#
# Revision: 0
# Processed by: cddbd v1.5.2PL0 Copyright (c) Steve Scherf et al.
# Submitted via: ExactAudioCopy v1.3
#
DISCID=23127513
DTITLE=Alex e Yvan - POrta à Fora
DYEAR=1900
DGENRE=Country
TTITLE0=Abertura
TTITLE1=Pout-Porri - Faca que não corta, Piracicabano,Falou e disse,Pa
TTITLE1=gode do ala
TTITLE2=Pout-Porri - Encruzilhada, Deixa eu te amar por favor, caçador
TTITLE2=de corações
TTITLE3=Esnobado no fim
TTITLE4=Pout-Porri - Quero ver você, O mesmo castigo, Derramado na pai
TTITLE4=xão,A primeira vez
TTITLE5=Cavalo Enxuto, Empreitada Perigosa
TTITLE6=Arrependida
TTITLE7=part. Jean e Júnior - Menino da porteira
TTITLE8=Flor de Goiás, Vou tomá um pingão
TTITLE9=Rei do gado
TTITLE10=Amor de violeiro
TTITLE11=Prato do dia
TTITLE12=Porta à fora
TTITLE13=Pout-Porri - Cerne de aroeira, meus inimigos também são filho
TTITLE13=s de Deus, Navalha na carne, na barba do leão
TTITLE14=Eternas ondas
TTITLE15=No mesmo lugar, Ligueio pra dizer que te amo
TTITLE16=Pout-Porri - È isso que o povo quer, Mineiro de monte Belo, O
TTITLE16=pobre e o rico, A coisa ta feia
TTITLE17=Pout-Porri - Vestido de seda, Rainha do meu destino, Paixão p
TTITLE17=roibida
TTITLE18=Mercedita
EXTD=
EXTT0=
EXTT1=
EXTT2=
EXTT3=
EXTT4=
EXTT5=
EXTT6=
EXTT7=
EXTT8=
EXTT9=
EXTT10=
EXTT11=
EXTT12=
EXTT13=
EXTT14=
EXTT15=
EXTT16=
EXTT17=
EXTT18=
PLAYORDER=
